<svg xmlns="http://www.w3.org/2000/svg" width="42" height="42" viewBox="0 0 42 42"><g fill="#010101"><path d="M35.162.297H5.872c-.623 0-1.128.504-1.128 1.127v39.43c0 .623.505 1.127 1.127 1.127h29.292c.622 0 1.127-.503 1.127-1.126V1.424C36.29.8 35.783.297 35.16.297zm-1.126 39.43H6.998V2.55h27.038v37.177zM9.814 11.563H31.22c.31 0 .562-.252.562-.563V5.367c0-.31-.252-.563-.563-.563H9.813c-.31 0-.563.252-.563.563V11c0 .31.253.563.564.563zm.564-5.633h20.278v4.506H10.378V5.93zM9.814 19.45h3.38c.31 0 .563-.253.563-.564v-3.38c0-.31-.252-.563-.563-.563h-3.38c-.31 0-.563.252-.563.563v3.38c0 .31.253.563.564.563zm.564-3.38h2.253v2.252H10.38V16.07zM18.827 14.942h-3.38c-.31 0-.563.252-.563.563v3.38c0 .31.252.563.563.563h3.38c.31 0 .563-.252.563-.563v-3.38c0-.31-.252-.563-.563-.563zm-.563 3.38H16.01V16.07h2.254v2.252zM25.586 14.942h-3.38c-.31 0-.563.252-.563.563v3.38c0 .31.252.563.563.563h3.38c.31 0 .563-.252.563-.563v-3.38c0-.31-.253-.563-.564-.563zm-.563 3.38H22.77V16.07h2.253v2.252zM31.22 14.942h-3.38c-.312 0-.564.252-.564.563v3.38c0 .31.252.563.563.563h3.38c.31 0 .562-.252.562-.563v-3.38c0-.31-.252-.563-.563-.563zm-.564 3.38h-2.253V16.07h2.253v2.252zM9.814 25.082h3.38c.31 0 .563-.252.563-.563v-3.38c0-.312-.252-.564-.563-.564h-3.38c-.31 0-.563.252-.563.563v3.38c0 .31.253.562.564.562zm.564-3.38h2.253v2.253H10.38v-2.253zM18.827 20.575h-3.38c-.31 0-.563.252-.563.563v3.38c0 .31.252.563.563.563h3.38c.31 0 .563-.25.563-.562v-3.38c0-.31-.252-.563-.563-.563zm-.563 3.38H16.01v-2.253h2.254v2.253zM25.586 20.575h-3.38c-.31 0-.563.252-.563.563v3.38c0 .31.252.563.563.563h3.38c.31 0 .563-.25.563-.562v-3.38c0-.31-.253-.563-.564-.563zm-.563 3.38H22.77v-2.253h2.253v2.253zM31.22 20.575h-3.38c-.312 0-.564.252-.564.563v3.38c0 .31.252.563.563.563h3.38c.31 0 .562-.25.562-.562v-3.38c0-.31-.252-.563-.563-.563zm-.564 3.38h-2.253v-2.253h2.253v2.253zM9.814 30.714h3.38c.31 0 .563-.252.563-.563v-3.38c0-.31-.252-.562-.563-.562h-3.38c-.31 0-.563.252-.563.563v3.38c0 .312.253.564.564.564zm.564-3.38h2.253v2.254H10.38v-2.253zM18.827 26.208h-3.38c-.31 0-.563.252-.563.563v3.38c0 .312.252.564.563.564h3.38c.31 0 .563-.252.563-.563v-3.38c0-.31-.252-.562-.563-.562zm-.563 3.38H16.01v-2.253h2.254v2.253zM25.586 26.208h-3.38c-.31 0-.563.252-.563.563v3.38c0 .312.252.564.563.564h3.38c.31 0 .563-.252.563-.563v-3.38c0-.31-.253-.562-.564-.562zm-.563 3.38H22.77v-2.253h2.253v2.253zM9.814 36.347h3.38c.31 0 .563-.252.563-.563v-3.38c0-.31-.252-.563-.563-.563h-3.38c-.31 0-.563.253-.563.564v3.38c0 .31.253.563.564.563zm.564-3.38h2.253v2.253H10.38v-2.253zM18.827 31.84h-3.38c-.31 0-.563.253-.563.564v3.38c0 .31.252.563.563.563h3.38c.31 0 .563-.252.563-.563v-3.38c0-.31-.252-.563-.563-.563zm-.563 3.38H16.01V32.97h2.254v2.253zM25.586 31.84h-3.38c-.31 0-.563.253-.563.564v3.38c0 .31.252.563.563.563h3.38c.31 0 .563-.252.563-.563v-3.38c0-.31-.253-.563-.564-.563zm-.563 3.38H22.77V32.97h2.253v2.253zM31.22 26.208h-3.38c-.312 0-.564.252-.564.563v9.014c0 .31.252.563.563.563h3.38c.31 0 .562-.252.562-.563V26.77c0-.31-.252-.562-.563-.562zm-.564 9.013h-2.253v-7.885h2.253v7.886z"/></g></svg>