<svg xmlns="http://www.w3.org/2000/svg" width="80" height="80" viewBox="0 0 80 80"><g fill="#fff"><path d="M79.59 37.515v4.477c-.09.838-.168 1.678-.27 2.515-.99 8.015-4.017 15.143-9.232 21.253-6.563 7.69-14.848 12.24-24.8 13.636-.98.137-1.967.235-2.95.35h-4.42c-.806-.088-1.614-.166-2.42-.267-8.382-1.058-15.746-4.413-21.968-10.204-7.06-6.573-11.236-14.71-12.526-24.35-.13-.976-.227-1.956-.34-2.934v-4.477c.09-.838.168-1.678.27-2.515.952-7.69 3.778-14.588 8.66-20.558C16.21 6.35 24.684 1.562 34.97.112c.98-.14 1.966-.236 2.95-.352h4.417c1.122.13 2.25.23 3.365.396 8.293 1.242 15.53 4.746 21.593 10.61C74.02 17.27 78.01 25.228 79.252 34.58c.13.975.227 1.955.34 2.933zm-5.258 2.22C74.334 20.594 59.035 5.09 40.125 5.07 21.237 5.048 5.928 20.546 5.905 39.71c-.02 19.143 15.27 34.676 34.165 34.707 18.895.03 34.26-15.523 34.262-34.683zM25.384 64.615l3.462-24.743c1.5.876 2.93 1.7 4.34 2.557.11.067.15.38.115.557-.742 3.81-1.5 7.618-2.255 11.427-.015.077-.018.157-.04.343.23-.195.397-.33.555-.47 2.76-2.464 5.526-4.924 8.274-7.402.305-.275.514-.307.87-.09 1.325.81 2.675 1.58 4.094 2.41-6.456 5.124-12.865 10.21-19.414 15.41zM52.18 17.726c-1.14 8.145-2.278 16.29-3.426 24.503-.182-.09-.337-.152-.48-.236-1.207-.702-2.403-1.423-3.62-2.103-.357-.2-.456-.405-.374-.81.746-3.667 1.473-7.337 2.203-11.007.037-.188.05-.382.093-.697-3.13 2.793-6.17 5.503-9.226 8.228l-4.556-2.665L52.05 17.653l.13.072zM38.786 45.06c-2.183-.008-3.94-1.79-3.945-4-.003-2.178 1.792-3.987 3.966-3.996 2.155-.01 3.934 1.81 3.928 4.018-.006 2.22-1.76 3.988-3.948 3.98z"/></g></svg>