<svg xmlns="http://www.w3.org/2000/svg" width="42" height="42" viewBox="0 0 42 42"><path fill="#010101" d="M40.66 20.726c-.36.363-.948.363-1.31 0l-8.484-8.483c-.06-.048-.113-.1-.16-.162L27.07 8.448c-.06-.048-.113-.1-.16-.162L21 2.375 2.65 20.726c-.36.364-.948.364-1.31 0-.362-.36-.362-.948 0-1.31L20.232.523c.03-.045.05-.096.09-.137.186-.186.433-.272.678-.266.245-.006.492.08.68.267.04.04.058.09.09.137l4.925 4.927V2.965c0-.524.424-.95.95-.95h3.795c.263 0 .5.107.67.28.174.17.28.408.28.67v8.18l8.27 8.27c.362.363.362.95 0 1.312zM30.49 3.913h-1.897v3.435l1.898 1.898V3.913zM7.714 19.1c.524 0 .95.424.95.948V38.08c0 1.05.85 1.9 1.897 1.9h5.695V27.64c0-.524.424-.948.95-.948h7.592c.525 0 .95.424.95.95v12.337h5.694c1.05 0 1.9-.85 1.9-1.9V20.05c0-.524.423-.95.948-.95.525 0 .95.426.95.95V38.08c0 2.098-1.7 3.797-3.797 3.797H10.56c-2.097 0-3.796-1.7-3.796-3.796V20.05c0-.525.425-.95.95-.95zm16.134 20.878v-11.39h-5.695v11.39h5.695z"/></svg>