<svg xmlns="http://www.w3.org/2000/svg" width="42" height="42" viewBox="0 0 42 42"><path fill="#010101" d="M42.033 6.528c0-.47-.215-.124-.685-.124H.576c-.47 0-.602-.345-.602.124v26.33c0 .112-.1.22-.058.326.087.208.19.328.397.414.105.042.153.02.263.02h40.77c.112 0 .22.022.326-.02.208-.088.29-.23.377-.438.04-.104-.018-.192-.018-.302V6.528zM1.21 8.485l11.163 11.162L1.21 30.807V8.486zM20.14 27.2c.167.166.384.25.6.25.22 0 .435-.084.602-.25l6.574-6.57.8.8-7.975 7.967-7.75-7.75.798-.798 6.353 6.35zm.6-1.67L14.4 19.12c-.004-.003-.004-.04-.007-.042 0-.002-.006.11-.01.11L2.72 7.64h36.05L20.74 25.53zm-8.35-3.098l8.05 7.957c.084.082.193.077.302.077s.218-.064.3-.147l8.276-8.093L39.3 32.382H2.627l9.763-9.95zm17.025-3.005L40.795 8.05v22.758l-11.38-11.38z"/></svg>