<svg xmlns="http://www.w3.org/2000/svg" width="80" height="80" viewBox="0 0 80 80"><g fill="#fff"><path d="M80 18.933C80 14.553 76.448 11 72.067 11H7.933C3.553 11 0 14.552 0 18.933v41.133C0 64.448 3.552 68 7.933 68h64.133C76.448 68 80 64.448 80 60.067V18.933zM7.99 13h65.054C75.668 13 78 15.71 78 18.333V26H3v-7.667C3 15.71 5.364 13 7.99 13zm65.053 52H7.99C5.363 65 3 62.212 3 59.588V30h75v29.588C78 62.212 75.668 65 73.043 65zM10.266 22.892c1.422 0 2.578-1.156 2.578-2.578 0-1.42-1.156-2.577-2.578-2.577-1.42 0-2.577 1.156-2.577 2.577 0 1.422 1.156 2.578 2.576 2.578zm0-3.568c.547 0 .992.445.992.99 0 .547-.445.992-.992.992-.545 0-.99-.445-.99-.992 0-.546.445-.99.99-.99zM16.613 22.892c1.422 0 2.578-1.156 2.578-2.578 0-1.42-1.155-2.577-2.577-2.577-1.42 0-2.577 1.156-2.577 2.577 0 1.422 1.156 2.578 2.577 2.578zm0-3.568c.547 0 .992.445.992.99 0 .547-.445.992-.992.992-.545 0-.99-.445-.99-.992 0-.546.445-.99.99-.99zM22.96 22.892c1.422 0 2.578-1.156 2.578-2.578 0-1.42-1.156-2.577-2.578-2.577-1.42 0-2.577 1.156-2.577 2.577 0 1.422 1.156 2.578 2.577 2.578zm0-3.568c.547 0 .992.445.992.99 0 .547-.445.992-.992.992-.545 0-.99-.445-.99-.992 0-.546.445-.99.99-.99zM41.435 35.428c-.045-.008-.085-.026-.132-.026-.028 0-.056.008-.084.008s-.057-.008-.085-.008c-.046 0-.087.02-.132.026-4.452.14-8.03 3.338-8.03 7.272 0 1.117.307 2.21.878 3.23.01.018.01.038.02.055l6.675 10.922c.005.008.014.01.017.017.063.096.142.183.246.246.006.003.012 0 .017.005.122.07.257.112.397.112s.276-.042.397-.112c.005-.003.01-.002.016-.005.104-.064.183-.15.246-.246.003-.008.012-.01.017-.017L48.252 46.5c.005-.006.008-.014.012-.02l.302-.496c.01-.014.01-.03.017-.046.567-1.007.882-2.11.882-3.24 0-3.933-3.58-7.13-8.03-7.27zm-.215 1.568c3.68.04 6.66 2.58 6.66 5.704 0 .964-.3 1.914-.85 2.76l-5.807 9.51-5.848-9.567c-.527-.834-.815-1.76-.815-2.702 0-3.124 2.98-5.666 6.66-5.704zM41.198 46.116c1.718 0 3.118-1.4 3.118-3.118s-1.4-3.118-3.118-3.118-3.118 1.4-3.118 3.118 1.4 3.118 3.118 3.118zm0-4.648c.844 0 1.53.686 1.53 1.53s-.685 1.532-1.53 1.532-1.53-.687-1.53-1.53.685-1.532 1.53-1.532zM10 53h22v2H10zM19 52V40h-9v2h7v7h-7v3h7.51zM22 38.96V38H10v1h10v13h12v-3H22zM61.936 49H50v3h23v-3h-7.89zM50 53h23v2H50z"/></g></svg>