<svg xmlns="http://www.w3.org/2000/svg" width="80" height="80" viewBox="0 0 80 80"><g fill="#fff"><path d="M26.725-.103c-5.348 0-9.725 4.35-9.725 9.7v51.728c0 .02.037.038.038.058.005.17.052.336.112.497l.044.108c.008.02.014.04.024.06l8.084 16.165c.275.548.834.893 1.447.893s1.17-.346 1.445-.893l8.083-16.165c.01-.02.013-.04.02-.06.017-.035.026-.07.04-.107.06-.16-.13-.327-.127-.496.004-.02-.21-.038-.21-.058V9.596c0-2.58-.792-5.017-2.628-6.872C31.53.9 29.306-.103 26.725-.103zM26.61 3.13c1.723 0 3.313.672 4.535 1.88C32.365 6.245 33 7.873 33 9.596V11H20V9.596c0-3.566 3.042-6.466 6.61-6.466zM25 59V14h3v45h-3zm-2-45v45h-3V14h3zm3.75 59.85L25.326 71h2.85l-1.424 2.85zM28.986 69h-4.467l-3.233-7H32.22l-3.235 7zM33 59h-3V14h3v45zM60 1.617C60 .724 59.276 0 58.383 0H42.617C41.724 0 41 .724 41 1.617v75.767c0 .892.724 1.616 1.617 1.616h15.767c.892 0 1.616-.724 1.616-1.617V1.617zM58 75H44v-6h8.616c.447 0 .808-.553.808-1s-.36-1-.808-1H44v-3h3.766c.447 0 .808-.553.808-1s-.36-1-.808-1H44v-3h8.616c.447 0 .808-.053.808-.5s-.362-.5-.808-.5H44v-3h3.766c.447 0 .808-.553.808-1s-.36-1-.808-1H44v-3h8.616c.447 0 .808-.553.808-1s-.36-1-.808-1H44v-3h3.766c.447 0 .808-.553.808-1s-.36-1-.808-1H44v-3h8.616c.447 0 .808-.053.808-.5s-.362-.5-.808-.5H44v-4h3.766c.447 0 .808-.053.808-.5s-.36-.5-.808-.5H44v-3h8.616c.447 0 .808-1.053.808-1.5s-.362-1.5-.808-1.5H44v-3h3.766c.447 0 .808-.553.808-1s-.36-1-.808-1H44v-3h8.616c.447 0 .808-.053.808-.5s-.362-.5-.808-.5H44v-4h3.766c.447 0 .808-.053.808-.5s-.36-.5-.808-.5H44v-3h8.616c.447 0 .808-.553.808-1s-.36-1-.808-1H44V3h14v72z"/></g></svg>