<svg xmlns="http://www.w3.org/2000/svg" width="42" height="42" viewBox="0 0 42 42"><g fill="#010101"><path d="M20.552.026c-7.228 0-13.108 5.69-13.108 12.67 0 1.494.264 2.973.79 4.364.023.066.053.172.09.23L19.806 41.39c.152.315.47.934.818.934.35 0 .67-.622.82-.938l10.58-22.486c.012-.024.025-.11.037-.135l.765-1.633c.01-.02.025-.078.036-.103.004-.004.006-.018.008-.023.52-1.38.782-2.835.782-4.323C33.652 5.704 27.776.026 20.552.026zm10.63 16.295l-.758 1.59c-.02.04-.04.076-.056.116l-9.748 20.45L9.904 16.29c-.426-1.154-.64-2.37-.64-3.617 0-5.98 5.063-10.842 11.29-10.842 6.22 0 11.28 4.863 11.28 10.842 0 1.24-.214 2.448-.65 3.646zM20.682 5.917c-3.916 0-7.102 3.186-7.102 7.102s3.186 7.1 7.102 7.1 7.102-3.185 7.102-7.1-3.186-7.103-7.102-7.103zm0 12.385c-2.914 0-5.284-2.37-5.284-5.284s2.37-5.284 5.284-5.284 5.284 2.37 5.284 5.284-2.37 5.284-5.284 5.284zM20.654 8.61c-2.413 0-4.378 1.965-4.378 4.378s1.964 4.377 4.378 4.377c2.413 0 4.377-1.964 4.377-4.377S23.068 8.61 20.655 8.61zm0 7.848c-1.912 0-3.47-1.556-3.47-3.468s1.558-3.468 3.47-3.468 3.468 1.556 3.468 3.468-1.556 3.468-3.468 3.468z"/></g></svg>