<svg xmlns="http://www.w3.org/2000/svg" width="42" height="42" viewBox="0 0 42 42"><path fill="#010101" d="M11.667 0H14c1.288 0 2.333 1.017 2.333 2.27v4.54C18.91 6.81 21 8.845 21 11.35v9.082h8.167v-6.81H42V42H0V11.35c0-2.507 2.09-4.54 4.667-4.54V2.27C4.667 1.017 5.712 0 7 0h2.333M14 3.405c0-.627-.522-1.135-1.167-1.135H8.167C7.522 2.27 7 2.78 7 3.405V6.81h7V3.405zm4.667 7.946c0-1.252-1.045-2.27-2.333-2.27H4.667c-1.288 0-2.333 1.018-2.333 2.27v28.38h16.333V11.35zm10.5 11.353H21V39.73h8.167V22.703zm10.5-6.81H31.5V39.73h8.167V15.892zM35 19.296h1.167c.645 0 1.167.507 1.167 1.135v1.135c0 .628-.52 1.135-1.167 1.135H35c-.645 0-1.167-.507-1.167-1.135v-1.135c0-.627.522-1.135 1.167-1.135zm0 6.81h1.167c.645 0 1.167.508 1.167 1.136v1.135c0 .628-.52 1.135-1.167 1.135H35c-.645 0-1.167-.507-1.167-1.135v-1.135c0-.627.522-1.135 1.167-1.135zm0 6.812h1.167c.645 0 1.167.506 1.167 1.134v1.135c0 .627-.52 1.134-1.167 1.134H35c-.645 0-1.167-.507-1.167-1.135v-1.136c0-.628.522-1.135 1.167-1.135zm-10.5-6.812h1.167c.645 0 1.167.507 1.167 1.135v1.135c0 .628-.522 1.135-1.167 1.135H24.5c-.645 0-1.167-.507-1.167-1.135v-1.135c0-.627.522-1.135 1.167-1.135zm0 6.81h1.167c.645 0 1.167.508 1.167 1.136v1.135c0 .627-.522 1.134-1.167 1.134H24.5c-.645 0-1.167-.507-1.167-1.135v-1.136c0-.628.522-1.135 1.167-1.135zM14 36.325h-1.167c-.645 0-1.167-.507-1.167-1.135v-1.136c0-.627.522-1.135 1.167-1.135H14c.645 0 1.167.508 1.167 1.134v1.135c0 .627-.522 1.134-1.167 1.134zm0-6.81h-1.167c-.645 0-1.167-.507-1.167-1.135v-1.136c0-.627.522-1.135 1.167-1.135H14c.645 0 1.167.508 1.167 1.134v1.135c0 .626-.522 1.134-1.167 1.134zm0-6.81h-1.167c-.645 0-1.167-.508-1.167-1.136v-1.135c0-.627.522-1.135 1.167-1.135H14c.645 0 1.167.51 1.167 1.135v1.135c0 .627-.522 1.135-1.167 1.135zm0-6.812h-1.167c-.645 0-1.167-.507-1.167-1.135v-1.135c0-.627.522-1.135 1.167-1.135H14c.645 0 1.167.51 1.167 1.135v1.135c0 .627-.522 1.135-1.167 1.135zM8.167 36.324H7c-.645 0-1.167-.507-1.167-1.135v-1.136c0-.628.52-1.135 1.167-1.135h1.167c.645 0 1.167.506 1.167 1.134v1.135c0 .627-.522 1.134-1.167 1.134zm0-6.81H7c-.645 0-1.167-.507-1.167-1.135v-1.136c0-.628.52-1.135 1.167-1.135h1.167c.645 0 1.167.506 1.167 1.134v1.135c0 .626-.522 1.134-1.167 1.134zm0-6.81H7c-.645 0-1.167-.508-1.167-1.136v-1.135c0-.627.52-1.135 1.167-1.135h1.167c.645 0 1.167.51 1.167 1.135v1.135c0 .627-.522 1.135-1.167 1.135zm0-6.812H7c-.645 0-1.167-.507-1.167-1.135v-1.135c0-.627.52-1.135 1.167-1.135h1.167c.645 0 1.167.51 1.167 1.135v1.135c0 .627-.522 1.135-1.167 1.135z"/></svg>