<svg xmlns="http://www.w3.org/2000/svg" width="42" height="42" viewBox="0 0 42 42"><path fill="#010101" d="M40.6 20.61c-.362.364-.95.364-1.31 0l-8.487-8.484c-.06-.048-.113-.1-.16-.162L27.005 8.33c-.06-.05-.113-.102-.16-.163l-5.91-5.91L2.58 20.61c-.362.364-.95.364-1.31 0-.363-.36-.363-.948 0-1.31L20.166.404c.03-.045.05-.096.09-.137.186-.186.433-.272.678-.267.245-.006.492.08.68.267.04.04.058.09.09.137l4.926 4.928V2.845c0-.524.425-.95.95-.95h3.797c.263 0 .5.107.67.28.174.17.28.408.28.67v8.182L40.6 19.3c.362.362.362.95 0 1.31zM30.428 3.796H28.53V7.23l1.9 1.9V3.794zM20.65 12.34c-8.23 0-14.904 6.674-14.904 14.904S12.42 42.147 20.65 42.147 35.55 35.474 35.55 27.244 28.88 12.34 20.65 12.34zm0 27.945c-7.19 0-13.04-5.85-13.04-13.04s5.85-13.04 13.04-13.04 13.04 5.85 13.04 13.04-5.85 13.04-13.04 13.04zm4.63-12.467c.356.6.534 1.3.534 2.103 0 1.233-.368 2.26-1.1 3.08-.734.82-1.793 1.305-3.177 1.45v2.11h-1.765v-2.1c-2.31-.236-3.737-1.578-4.288-4.023l2.73-.71c.252 1.536 1.09 2.304 2.51 2.304.664 0 1.155-.163 1.468-.492.313-.33.47-.726.47-1.192 0-.482-.157-.848-.47-1.095-.313-.248-1.01-.563-2.088-.945-.97-.337-1.728-.668-2.274-1-.546-.326-.99-.787-1.33-1.378-.34-.593-.51-1.284-.51-2.07 0-1.032.305-1.96.912-2.787.608-.824 1.565-1.328 2.87-1.512V17.93h1.766v1.628c1.972.237 3.25 1.352 3.83 3.347l-2.432.997c-.475-1.368-1.206-2.052-2.2-2.052-.498 0-.898.153-1.198.458-.302.306-.453.677-.453 1.112 0 .444.146.784.437 1.022.29.237.913.53 1.867.88 1.047.383 1.87.745 2.464 1.085.595.34 1.07.812 1.427 1.41z"/></svg>