<svg xmlns="http://www.w3.org/2000/svg" width="80" height="80" viewBox="0 0 80 80"><path fill="#fff" d="M77.402 38.77c-.682.685-1.79.685-2.47 0L58.936 22.78c-.115-.09-.213-.19-.303-.305l-6.853-6.85c-.114-.09-.212-.19-.302-.306l-11.14-11.14L5.744 38.77c-.682.685-1.79.685-2.47 0-.683-.68-.683-1.788 0-2.47L38.888.683c.054-.085.093-.18.167-.258.352-.35.818-.513 1.28-.503.462-.01.927.15 1.28.503.077.075.11.172.172.258l9.284 9.29v-4.69c0-.987.8-1.788 1.79-1.788h7.156c.496 0 .942.2 1.265.524.326.323.524.77.524 1.264v15.422L77.4 36.3c.683.682.683 1.788 0 2.47zM58.23 7.076h-3.577v6.474l3.58 3.578V7.075h-.003zM39.798 23.183c-15.512 0-28.09 12.578-28.09 28.09s12.578 28.09 28.09 28.09 28.09-12.578 28.09-28.09-12.578-28.09-28.09-28.09zm0 52.67c-13.552 0-24.58-11.028-24.58-24.58S26.25 26.696 39.8 26.696s24.58 11.028 24.58 24.58-11.028 24.578-24.58 24.578zm8.73-23.498c.67 1.13 1.005 2.452 1.005 3.964 0 2.32-.694 4.255-2.075 5.8-1.382 1.55-3.378 2.463-5.986 2.738v3.973h-3.327v-3.953c-4.352-.447-7.044-2.976-8.082-7.585l5.144-1.34c.477 2.897 2.054 4.345 4.733 4.345 1.252 0 2.177-.31 2.767-.93.59-.62.884-1.367.884-2.246 0-.908-.293-1.597-.883-2.063-.59-.47-1.904-1.063-3.936-1.783-1.827-.635-3.256-1.26-4.285-1.883-1.03-.615-1.866-1.484-2.507-2.598-.64-1.118-.963-2.42-.963-3.902 0-1.945.577-3.696 1.72-5.253 1.147-1.553 2.95-2.503 5.412-2.85v-3.07h3.327v3.07c3.717.447 6.124 2.548 7.217 6.31l-4.58 1.878c-.896-2.578-2.274-3.868-4.146-3.868-.94 0-1.694.288-2.26.863-.57.577-.854 1.276-.854 2.096 0 .837.275 1.478.824 1.926.545.447 1.72.997 3.52 1.66 1.974.72 3.524 1.403 4.645 2.044 1.12.642 2.015 1.53 2.688 2.66z"/></svg>