<?xml version="1.0" encoding="utf-8"?>
<!-- Generator: Adobe Illustrator 17.0.2, SVG Export Plug-In . SVG Version: 6.00 Build 0)  -->
<!DOCTYPE svg PUBLIC "-//W3C//DTD SVG 1.1//EN" "http://www.w3.org/Graphics/SVG/1.1/DTD/svg11.dtd">
<svg version="1.1" id="Layer_1" xmlns="http://www.w3.org/2000/svg" xmlns:xlink="http://www.w3.org/1999/xlink" x="0px" y="0px"
	 width="42px" height="42px" viewBox="0 0 42 42" enable-background="new 0 0 42 42" xml:space="preserve">
<g>
	<path fill="#010101" d="M35.162,0.297H5.871c-0.622,0-1.127,0.504-1.127,1.127v39.43c0,0.623,0.505,1.127,1.127,1.127h29.291
		c0.622,0,1.127-0.504,1.127-1.127V1.424C36.289,0.801,35.784,0.297,35.162,0.297z M34.036,39.727H6.998V2.55h27.038V39.727z"/>
	<path fill="#010101" d="M9.814,11.563h21.405c0.311,0,0.563-0.252,0.563-0.563V5.367c0-0.311-0.252-0.563-0.563-0.563H9.814
		c-0.311,0-0.563,0.252-0.563,0.563V11C9.251,11.31,9.503,11.563,9.814,11.563z M10.378,5.93h20.278v4.506H10.378V5.93z"/>
	<path fill="#010101" d="M9.814,19.449h3.38c0.311,0,0.563-0.252,0.563-0.563v-3.38c0-0.311-0.252-0.563-0.563-0.563h-3.38
		c-0.311,0-0.563,0.252-0.563,0.563v3.38C9.251,19.196,9.503,19.449,9.814,19.449z M10.378,16.069h2.253v2.253h-2.253V16.069z"/>
	<path fill="#010101" d="M18.827,14.942h-3.38c-0.311,0-0.563,0.252-0.563,0.563v3.38c0,0.311,0.252,0.563,0.563,0.563h3.38
		c0.311,0,0.563-0.252,0.563-0.563v-3.38C19.39,15.195,19.138,14.942,18.827,14.942z M18.264,18.322h-2.253v-2.253h2.253V18.322z"/>
	<path fill="#010101" d="M25.586,14.942h-3.38c-0.311,0-0.563,0.252-0.563,0.563v3.38c0,0.311,0.252,0.563,0.563,0.563h3.38
		c0.311,0,0.563-0.252,0.563-0.563v-3.38C26.15,15.195,25.897,14.942,25.586,14.942z M25.023,18.322H22.77v-2.253h2.253V18.322z"/>
	<path fill="#010101" d="M31.219,14.942h-3.38c-0.311,0-0.563,0.252-0.563,0.563v3.38c0,0.311,0.252,0.563,0.563,0.563h3.38
		c0.311,0,0.563-0.252,0.563-0.563v-3.38C31.782,15.195,31.53,14.942,31.219,14.942z M30.656,18.322h-2.253v-2.253h2.253V18.322z"/>
	<path fill="#010101" d="M9.814,25.082h3.38c0.311,0,0.563-0.252,0.563-0.563v-3.38c0-0.311-0.252-0.563-0.563-0.563h-3.38
		c-0.311,0-0.563,0.252-0.563,0.563v3.38C9.251,24.829,9.503,25.082,9.814,25.082z M10.378,21.702h2.253v2.253h-2.253V21.702z"/>
	<path fill="#010101" d="M18.827,20.575h-3.38c-0.311,0-0.563,0.252-0.563,0.563v3.38c0,0.311,0.252,0.563,0.563,0.563h3.38
		c0.311,0,0.563-0.252,0.563-0.563v-3.38C19.39,20.828,19.138,20.575,18.827,20.575z M18.264,23.955h-2.253v-2.253h2.253V23.955z"/>
	<path fill="#010101" d="M25.586,20.575h-3.38c-0.311,0-0.563,0.252-0.563,0.563v3.38c0,0.311,0.252,0.563,0.563,0.563h3.38
		c0.311,0,0.563-0.252,0.563-0.563v-3.38C26.15,20.828,25.897,20.575,25.586,20.575z M25.023,23.955H22.77v-2.253h2.253V23.955z"/>
	<path fill="#010101" d="M31.219,20.575h-3.38c-0.311,0-0.563,0.252-0.563,0.563v3.38c0,0.311,0.252,0.563,0.563,0.563h3.38
		c0.311,0,0.563-0.252,0.563-0.563v-3.38C31.782,20.828,31.53,20.575,31.219,20.575z M30.656,23.955h-2.253v-2.253h2.253V23.955z"/>
	<path fill="#010101" d="M9.814,30.714h3.38c0.311,0,0.563-0.252,0.563-0.563v-3.38c0-0.311-0.252-0.563-0.563-0.563h-3.38
		c-0.311,0-0.563,0.252-0.563,0.563v3.38C9.251,30.462,9.503,30.714,9.814,30.714z M10.378,27.335h2.253v2.253h-2.253V27.335z"/>
	<path fill="#010101" d="M18.827,26.208h-3.38c-0.311,0-0.563,0.252-0.563,0.563v3.38c0,0.311,0.252,0.563,0.563,0.563h3.38
		c0.311,0,0.563-0.252,0.563-0.563v-3.38C19.39,26.46,19.138,26.208,18.827,26.208z M18.264,29.588h-2.253v-2.253h2.253V29.588z"/>
	<path fill="#010101" d="M25.586,26.208h-3.38c-0.311,0-0.563,0.252-0.563,0.563v3.38c0,0.311,0.252,0.563,0.563,0.563h3.38
		c0.311,0,0.563-0.252,0.563-0.563v-3.38C26.15,26.46,25.897,26.208,25.586,26.208z M25.023,29.588H22.77v-2.253h2.253V29.588z"/>
	<path fill="#010101" d="M9.814,36.347h3.38c0.311,0,0.563-0.252,0.563-0.563v-3.38c0-0.311-0.252-0.563-0.563-0.563h-3.38
		c-0.311,0-0.563,0.252-0.563,0.563v3.38C9.251,36.095,9.503,36.347,9.814,36.347z M10.378,32.967h2.253v2.253h-2.253V32.967z"/>
	<path fill="#010101" d="M18.827,31.841h-3.38c-0.311,0-0.563,0.252-0.563,0.563v3.38c0,0.311,0.252,0.563,0.563,0.563h3.38
		c0.311,0,0.563-0.252,0.563-0.563v-3.38C19.39,32.093,19.138,31.841,18.827,31.841z M18.264,35.221h-2.253v-2.253h2.253V35.221z"/>
	<path fill="#010101" d="M25.586,31.841h-3.38c-0.311,0-0.563,0.252-0.563,0.563v3.38c0,0.311,0.252,0.563,0.563,0.563h3.38
		c0.311,0,0.563-0.252,0.563-0.563v-3.38C26.15,32.093,25.897,31.841,25.586,31.841z M25.023,35.221H22.77v-2.253h2.253V35.221z"/>
	<path fill="#010101" d="M31.219,26.208h-3.38c-0.311,0-0.563,0.252-0.563,0.563v9.013c0,0.311,0.252,0.563,0.563,0.563h3.38
		c0.311,0,0.563-0.252,0.563-0.563v-9.013C31.782,26.46,31.53,26.208,31.219,26.208z M30.656,35.221h-2.253v-7.886h2.253V35.221z"/>
</g>
</svg>
