<?xml version="1.0" encoding="utf-8"?>
<!-- Generator: Adobe Illustrator 17.0.2, SVG Export Plug-In . SVG Version: 6.00 Build 0)  -->
<!DOCTYPE svg PUBLIC "-//W3C//DTD SVG 1.1//EN" "http://www.w3.org/Graphics/SVG/1.1/DTD/svg11.dtd">
<svg version="1.1" id="Layer_1" xmlns="http://www.w3.org/2000/svg" xmlns:xlink="http://www.w3.org/1999/xlink" x="0px" y="0px"
	 width="80px" height="80px" viewBox="0 0 80 80" enable-background="new 0 0 80 80" xml:space="preserve">
<g>
	<g>
		<path fill="#FFFFFF" d="M79.591,37.515c0,1.492,0,2.985,0,4.477c-0.09,0.838-0.169,1.678-0.272,2.515
			c-0.99,8.015-4.016,15.143-9.231,21.253c-6.563,7.69-14.848,12.241-24.8,13.636c-0.981,0.137-1.967,0.235-2.951,0.351
			c-1.473,0-2.945,0-4.418,0c-0.807-0.089-1.615-0.167-2.42-0.268c-8.383-1.057-15.747-4.412-21.969-10.203
			C6.469,62.703,2.294,54.565,1.004,44.925c-0.131-0.975-0.227-1.955-0.339-2.933c0-1.492,0-2.985,0-4.477
			c0.09-0.838,0.167-1.678,0.27-2.515c0.951-7.689,3.777-14.588,8.659-20.558C16.21,6.35,24.684,1.563,34.969,0.111
			c0.98-0.138,1.967-0.235,2.95-0.351c1.473,0,2.945,0,4.418,0c1.122,0.13,2.249,0.229,3.365,0.396
			c8.293,1.242,15.53,4.746,21.593,10.609c6.726,6.505,10.715,14.464,11.957,23.817C79.382,35.557,79.479,36.537,79.591,37.515z
			 M74.332,39.734C74.334,20.596,59.035,5.092,40.125,5.07C21.237,5.048,5.928,20.546,5.906,39.71
			C5.884,58.853,21.174,74.386,40.07,74.417C58.965,74.448,74.33,58.894,74.332,39.734z"/>
		<path fill="#FFFFFF" d="M25.384,64.615c1.165-8.328,2.308-16.495,3.462-24.743c1.499,0.876,2.929,1.7,4.339,2.557
			c0.112,0.068,0.151,0.38,0.116,0.558c-0.743,3.811-1.501,7.618-2.256,11.427c-0.015,0.077-0.018,0.157-0.039,0.343
			c0.23-0.195,0.396-0.329,0.554-0.47c2.761-2.464,5.526-4.924,8.274-7.402c0.305-0.275,0.514-0.307,0.869-0.09
			c1.326,0.81,2.676,1.579,4.095,2.409C38.342,54.329,31.933,59.416,25.384,64.615z"/>
		<path fill="#FFFFFF" d="M52.18,17.726c-1.139,8.145-2.278,16.289-3.426,24.503c-0.182-0.088-0.337-0.151-0.481-0.235
			c-1.206-0.702-2.402-1.423-3.619-2.103c-0.357-0.2-0.456-0.406-0.374-0.811c0.746-3.667,1.473-7.337,2.203-11.007
			c0.037-0.188,0.051-0.382,0.093-0.697c-3.131,2.793-6.17,5.503-9.226,8.228c-1.504-0.879-2.981-1.744-4.556-2.665
			c6.454-5.123,12.856-10.204,19.257-15.285C52.094,17.678,52.137,17.702,52.18,17.726z"/>
		<path fill="#FFFFFF" d="M38.786,45.061c-2.183-0.009-3.941-1.792-3.945-4c-0.004-2.179,1.791-3.988,3.965-3.997
			c2.155-0.009,3.934,1.811,3.928,4.018C42.728,43.302,40.974,45.07,38.786,45.061z"/>
	</g>
</g>
</svg>
