<?xml version="1.0" encoding="utf-8"?>
<!-- Generator: Adobe Illustrator 17.0.2, SVG Export Plug-In . SVG Version: 6.00 Build 0)  -->
<!DOCTYPE svg PUBLIC "-//W3C//DTD SVG 1.1//EN" "http://www.w3.org/Graphics/SVG/1.1/DTD/svg11.dtd">
<svg version="1.1" id="Layer_1" xmlns="http://www.w3.org/2000/svg" xmlns:xlink="http://www.w3.org/1999/xlink" x="0px" y="0px"
	 width="42px" height="42px" viewBox="0 0 42 42" enable-background="new 0 0 42 42" xml:space="preserve">
<path fill="#010101" d="M40.661,20.726c-0.362,0.363-0.949,0.363-1.311,0l-8.484-8.483c-0.061-0.048-0.113-0.101-0.161-0.162
	l-3.635-3.634c-0.061-0.048-0.113-0.101-0.161-0.162L21,2.376L2.651,20.726c-0.362,0.363-0.949,0.363-1.311,0
	c-0.362-0.362-0.362-0.949,0-1.311L20.232,0.523c0.029-0.045,0.05-0.096,0.089-0.137C20.508,0.2,20.755,0.114,21,0.12
	c0.245-0.006,0.492,0.08,0.679,0.267c0.041,0.04,0.059,0.091,0.091,0.137l4.925,4.927V2.964l0,0c0-0.524,0.424-0.949,0.949-0.949
	h3.796c0.263,0,0.5,0.106,0.671,0.278c0.173,0.172,0.278,0.409,0.278,0.671v8.18l8.271,8.27
	C41.022,19.777,41.022,20.364,40.661,20.726z M30.491,3.913h-1.898v3.435l1.898,1.898V3.913z M7.713,19.099
	c0.524,0,0.949,0.425,0.949,0.949v18.033c0,1.049,0.85,1.898,1.898,1.898h5.695l0,0V27.641c0-0.525,0.424-0.949,0.949-0.949h7.593
	c0.525,0,0.949,0.424,0.949,0.949v12.338l0,0h5.695c1.049,0,1.898-0.849,1.898-1.898V20.048c0-0.524,0.424-0.949,0.949-0.949
	c0.525,0,0.949,0.425,0.949,0.949v18.033c0,2.097-1.7,3.796-3.796,3.796H10.56c-2.097,0-3.796-1.7-3.796-3.796V20.048
	C6.764,19.523,7.189,19.099,7.713,19.099z M23.847,39.978V28.589h-5.695v11.389l0,0H23.847L23.847,39.978z"/>
</svg>
