<?xml version="1.0" encoding="utf-8"?>
<!-- Generator: Adobe Illustrator 17.0.2, SVG Export Plug-In . SVG Version: 6.00 Build 0)  -->
<!DOCTYPE svg PUBLIC "-//W3C//DTD SVG 1.1//EN" "http://www.w3.org/Graphics/SVG/1.1/DTD/svg11.dtd">
<svg version="1.1" id="Layer_1" xmlns="http://www.w3.org/2000/svg" xmlns:xlink="http://www.w3.org/1999/xlink" x="0px" y="0px"
	 width="42px" height="42px" viewBox="0 0 42 42" enable-background="new 0 0 42 42" xml:space="preserve">
<path fill="#010101" d="M42.033,6.528c0-0.469-0.215-0.124-0.685-0.124H0.576c-0.469,0-0.602-0.345-0.602,0.124v26.331
	c0,0.111-0.1,0.22-0.058,0.325c0.087,0.208,0.191,0.328,0.397,0.414c0.105,0.042,0.153,0.02,0.263,0.02h40.771
	c0.111,0,0.22,0.022,0.325-0.021c0.208-0.087,0.291-0.229,0.377-0.437c0.042-0.104-0.017-0.192-0.017-0.302V6.528z M1.211,8.485
	l11.162,11.162L1.211,30.808V8.485z M20.141,27.2c0.166,0.166,0.383,0.249,0.6,0.249c0.218,0,0.434-0.083,0.601-0.249l6.574-6.571
	l0.8,0.8l-7.975,7.968l-7.751-7.75l0.798-0.798L20.141,27.2z M20.741,25.53l-6.343-6.409c-0.004-0.004-0.004-0.041-0.007-0.043
	c-0.002-0.002-0.007,0.111-0.01,0.109L2.72,7.641h36.05L20.741,25.53z M12.39,22.432l8.051,7.957
	c0.083,0.083,0.192,0.078,0.301,0.078s0.218-0.064,0.301-0.147l8.275-8.093l9.982,10.155H2.627L12.39,22.432z M29.415,19.427
	L40.796,8.05v22.758L29.415,19.427z"/>
</svg>
