<?xml version="1.0" encoding="utf-8"?>
<!-- Generator: Adobe Illustrator 17.0.2, SVG Export Plug-In . SVG Version: 6.00 Build 0)  -->
<!DOCTYPE svg PUBLIC "-//W3C//DTD SVG 1.1//EN" "http://www.w3.org/Graphics/SVG/1.1/DTD/svg11.dtd">
<svg version="1.1" id="Layer_1" xmlns="http://www.w3.org/2000/svg" xmlns:xlink="http://www.w3.org/1999/xlink" x="0px" y="0px"
	 width="80px" height="80px" viewBox="0 0 80 80" enable-background="new 0 0 80 80" xml:space="preserve">
<g>
	<path fill="#FFFFFF" d="M80,18.933C80,14.552,76.448,11,72.067,11H7.933C3.552,11,0,14.552,0,18.933v41.133
		C0,64.448,3.552,68,7.933,68h64.133C76.448,68,80,64.448,80,60.067V18.933z M7.989,13h65.055C75.668,13,78,15.709,78,18.333V26H3
		v-7.667C3,15.709,5.364,13,7.989,13z M73.043,65H7.989C5.364,65,3,62.212,3,59.588V30h75v29.588C78,62.212,75.668,65,73.043,65z"/>
	<path fill="#FFFFFF" d="M10.266,22.892c1.422,0,2.578-1.156,2.578-2.578c0-1.421-1.156-2.577-2.578-2.577
		c-1.421,0-2.577,1.156-2.577,2.577C7.69,21.736,8.846,22.892,10.266,22.892z M10.266,19.324c0.547,0,0.992,0.445,0.992,0.99
		c0,0.547-0.445,0.992-0.992,0.992c-0.545,0-0.99-0.445-0.99-0.992C9.276,19.768,9.721,19.324,10.266,19.324z"/>
	<path fill="#FFFFFF" d="M16.613,22.892c1.422,0,2.578-1.156,2.578-2.578c0-1.421-1.156-2.577-2.578-2.577
		c-1.421,0-2.577,1.156-2.577,2.577C14.036,21.736,15.192,22.892,16.613,22.892z M16.613,19.324c0.547,0,0.992,0.445,0.992,0.99
		c0,0.547-0.445,0.992-0.992,0.992c-0.545,0-0.99-0.445-0.99-0.992C15.623,19.768,16.068,19.324,16.613,19.324z"/>
	<path fill="#FFFFFF" d="M22.96,22.892c1.422,0,2.578-1.156,2.578-2.578c0-1.421-1.156-2.577-2.578-2.577
		c-1.421,0-2.577,1.156-2.577,2.577C20.383,21.736,21.539,22.892,22.96,22.892z M22.96,19.324c0.547,0,0.992,0.445,0.992,0.99
		c0,0.547-0.445,0.992-0.992,0.992c-0.545,0-0.99-0.445-0.99-0.992C21.97,19.768,22.415,19.324,22.96,19.324z"/>
	<path fill="#FFFFFF" d="M41.435,35.428c-0.045-0.008-0.085-0.026-0.132-0.026c-0.028,0-0.056,0.008-0.084,0.008
		s-0.056-0.008-0.084-0.008c-0.046,0-0.087,0.019-0.132,0.026c-4.452,0.141-8.031,3.338-8.031,7.272
		c0,1.117,0.308,2.211,0.879,3.229c0.009,0.019,0.009,0.039,0.02,0.056l6.674,10.922c0.005,0.008,0.014,0.009,0.017,0.017
		c0.063,0.096,0.142,0.183,0.246,0.246c0.006,0.003,0.012,0.001,0.017,0.005c0.122,0.071,0.257,0.112,0.397,0.112
		c0.139,0,0.276-0.042,0.397-0.112c0.006-0.003,0.012-0.002,0.017-0.005c0.104-0.064,0.183-0.15,0.246-0.246
		c0.003-0.008,0.012-0.009,0.017-0.017L48.253,46.5l0,0c0.005-0.006,0.008-0.014,0.012-0.02l0.302-0.496
		c0.009-0.014,0.009-0.031,0.017-0.046c0.567-1.007,0.882-2.11,0.882-3.239C49.466,38.765,45.887,35.569,41.435,35.428z
		 M41.22,36.996c3.68,0.039,6.66,2.58,6.66,5.704c0,0.964-0.299,1.914-0.849,2.76l-5.808,9.511l-5.848-9.568
		c-0.527-0.834-0.815-1.76-0.815-2.702C34.56,39.576,37.539,37.034,41.22,36.996z"/>
	<path fill="#FFFFFF" d="M41.198,46.116c1.718,0,3.118-1.399,3.118-3.118s-1.399-3.118-3.118-3.118s-3.118,1.399-3.118,3.118
		S39.479,46.116,41.198,46.116z M41.198,41.468c0.844,0,1.531,0.686,1.531,1.531s-0.686,1.531-1.531,1.531s-1.531-0.687-1.531-1.531
		S40.353,41.468,41.198,41.468z"/>
	<rect x="10" y="53" fill="#FFFFFF" width="22" height="2"/>
	<polygon fill="#FFFFFF" points="19,52 19,42.134 19,40 10,40 10,42 17,42 17,49 10,49 10,52 17.509,52 	"/>
	<polygon fill="#FFFFFF" points="22,38.961 22,38 19.096,38 17.509,38 10,38 10,39 17.509,39 19.096,39 20,39 20,50.067 20,52 
		22.269,52 32,52 32,49 22,49 	"/>
	<polygon fill="#FFFFFF" points="61.936,49 50,49 50,52 61.936,52 65.11,52 73,52 73,49 65.11,49 	"/>
	<rect x="50" y="53" fill="#FFFFFF" width="23" height="2"/>
</g>
</svg>
