<?xml version="1.0" encoding="utf-8"?>
<!-- Generator: Adobe Illustrator 17.0.2, SVG Export Plug-In . SVG Version: 6.00 Build 0)  -->
<!DOCTYPE svg PUBLIC "-//W3C//DTD SVG 1.1//EN" "http://www.w3.org/Graphics/SVG/1.1/DTD/svg11.dtd">
<svg version="1.1" id="Layer_1" xmlns="http://www.w3.org/2000/svg" xmlns:xlink="http://www.w3.org/1999/xlink" x="0px" y="0px"
	 width="80px" height="80px" viewBox="0 0 80 80" enable-background="new 0 0 80 80" xml:space="preserve">
<g>
	<path fill="#FFFFFF" d="M26.725-0.103C21.377-0.103,17,4.248,17,9.596v3.233v1.617v46.88c0,0.021,0.037,0.038,0.038,0.058
		c0.005,0.169,0.052,0.336,0.112,0.497c0.014,0.036,0.029,0.073,0.044,0.107c0.008,0.019,0.014,0.041,0.024,0.06l8.084,16.165
		c0.275,0.548,0.834,0.893,1.447,0.893s1.172-0.346,1.446-0.893l8.083-16.165c0.01-0.019,0.013-0.041,0.021-0.06
		c0.016-0.035,0.025-0.071,0.038-0.107c0.06-0.161-0.13-0.328-0.126-0.497C36.214,61.364,36,61.346,36,61.326v-46.88V12.83V9.596
		c0-2.581-0.792-5.017-2.628-6.872C31.53,0.901,29.306-0.103,26.725-0.103z M26.609,3.13c1.724,0,3.314,0.672,4.536,1.88
		C32.365,6.245,33,7.873,33,9.596V11H20V9.596C20,6.03,23.042,3.13,26.609,3.13z M25,59V14h3v45H25z M23,14v45h-3V14H23z
		 M26.751,73.851L25.325,71h2.851L26.751,73.851z M28.985,69h-4.467l-3.233-7h10.934L28.985,69z M33,59h-3V14h3V59z"/>
	<path fill="#FFFFFF" d="M60,1.617C60,0.724,59.276,0,58.383,0H42.617C41.724,0,41,0.724,41,1.617v75.767
		C41,78.276,41.724,79,42.617,79h15.767C59.276,79,60,78.276,60,77.383V1.617z M58,75H44v-6h8.616c0.447,0,0.808-0.553,0.808-1
		s-0.361-1-0.808-1H44v-3h3.766c0.447,0,0.808-0.553,0.808-1s-0.361-1-0.808-1H44v-3h8.616c0.447,0,0.808-0.053,0.808-0.5
		S53.062,58,52.616,58H44v-3h3.766c0.447,0,0.808-0.553,0.808-1s-0.361-1-0.808-1H44v-3h8.616c0.447,0,0.808-0.553,0.808-1
		s-0.361-1-0.808-1H44v-3h3.766c0.447,0,0.808-0.553,0.808-1s-0.361-1-0.808-1H44v-3h8.616c0.447,0,0.808-0.053,0.808-0.5
		S53.062,39,52.616,39H44v-4h3.766c0.447,0,0.808-0.053,0.808-0.5S48.213,34,47.766,34H44v-3h8.616c0.447,0,0.808-1.053,0.808-1.5
		S53.062,28,52.616,28H44v-3h3.766c0.447,0,0.808-0.553,0.808-1s-0.361-1-0.808-1H44v-3h8.616c0.447,0,0.808-0.053,0.808-0.5
		S53.062,19,52.616,19H44v-4h3.766c0.447,0,0.808-0.053,0.808-0.5S48.213,14,47.766,14H44v-3h8.616c0.447,0,0.808-0.553,0.808-1
		s-0.361-1-0.808-1H44V3h14V75z"/>
</g>
</svg>
