<?xml version="1.0" encoding="utf-8"?>
<!-- Generator: Adobe Illustrator 17.0.2, SVG Export Plug-In . SVG Version: 6.00 Build 0)  -->
<!DOCTYPE svg PUBLIC "-//W3C//DTD SVG 1.1//EN" "http://www.w3.org/Graphics/SVG/1.1/DTD/svg11.dtd">
<svg version="1.1" id="Layer_1" xmlns="http://www.w3.org/2000/svg" xmlns:xlink="http://www.w3.org/1999/xlink" x="0px" y="0px"
	 width="42px" height="42px" viewBox="0 0 42 42" enable-background="new 0 0 42 42" xml:space="preserve">
<g>
	<path fill="#010101" d="M20.552,0.026c-7.228,0-13.108,5.691-13.108,12.671c0,1.493,0.264,2.972,0.789,4.363
		c0.024,0.066,0.054,0.172,0.091,0.229l11.482,24.103c0.152,0.315,0.469,0.934,0.818,0.934c0.001,0,0.001,0,0.001,0
		c0.35,0,0.669-0.622,0.819-0.938l10.579-22.486c0.013-0.024,0.026-0.11,0.038-0.135l0.764-1.633
		c0.009-0.02,0.025-0.078,0.036-0.103c0.003-0.005,0.005-0.019,0.007-0.024c0.519-1.38,0.782-2.835,0.782-4.323
		C33.652,5.705,27.776,0.026,20.552,0.026z M31.183,16.321l-0.759,1.59c-0.021,0.038-0.04,0.075-0.056,0.115L20.62,38.475
		L9.904,16.292c-0.426-1.154-0.641-2.37-0.641-3.617c0-5.979,5.064-10.842,11.29-10.842c6.221,0,11.281,4.863,11.281,10.842
		C31.833,13.915,31.62,15.123,31.183,16.321z"/>
	<path fill="#010101" d="M20.682,5.917c-3.916,0-7.102,3.186-7.102,7.102s3.186,7.102,7.102,7.102s7.102-3.186,7.102-7.102
		S24.598,5.917,20.682,5.917z M20.682,18.302c-2.914,0-5.284-2.37-5.284-5.284s2.37-5.284,5.284-5.284s5.284,2.37,5.284,5.284
		S23.596,18.302,20.682,18.302z"/>
	<path fill="#010101" d="M20.654,8.611c-2.413,0-4.378,1.964-4.378,4.377s1.964,4.377,4.378,4.377c2.413,0,4.377-1.964,4.377-4.377
		C25.03,10.575,23.067,8.611,20.654,8.611z M20.654,16.458c-1.912,0-3.469-1.556-3.469-3.468s1.557-3.468,3.469-3.468
		s3.468,1.556,3.468,3.468S22.566,16.458,20.654,16.458z"/>
</g>
</svg>
