<?xml version="1.0" encoding="utf-8"?>
<!-- Generator: Adobe Illustrator 17.0.2, SVG Export Plug-In . SVG Version: 6.00 Build 0)  -->
<!DOCTYPE svg PUBLIC "-//W3C//DTD SVG 1.1//EN" "http://www.w3.org/Graphics/SVG/1.1/DTD/svg11.dtd">
<svg version="1.1" id="Layer_1" xmlns="http://www.w3.org/2000/svg" xmlns:xlink="http://www.w3.org/1999/xlink" x="0px" y="0px"
	 width="42px" height="42px" viewBox="0 0 42 42" enable-background="new 0 0 42 42" xml:space="preserve">
<path fill="#010101" d="M11.667,0H14c1.288,0,2.333,1.017,2.333,2.27v4.541l0,0l0,0C18.91,6.811,21,8.844,21,11.351v9.081h8.167
	v-6.811h4.667h7H42V42H0V11.351c0-2.508,2.089-4.541,4.667-4.541l0,0V2.27C4.667,1.017,5.712,0,7,0h2.333 M14,3.405
	c0-0.627-0.522-1.135-1.167-1.135H8.167C7.522,2.27,7,2.779,7,3.405v3.405h7V3.405z M18.667,11.351c0-1.253-1.045-2.27-2.333-2.27
	H4.667c-1.288,0-2.333,1.017-2.333,2.27V39.73h16.333V11.351z M29.167,22.703H21V39.73h8.167V22.703z M39.667,15.892H31.5V39.73
	h8.167V15.892z M35,19.297h1.167c0.645,0,1.167,0.507,1.167,1.135v1.135c0,0.628-0.521,1.135-1.167,1.135H35
	c-0.645,0-1.167-0.507-1.167-1.135v-1.135C33.833,19.805,34.355,19.297,35,19.297z M35,26.108h1.167
	c0.645,0,1.167,0.507,1.167,1.135v1.135c0,0.628-0.521,1.135-1.167,1.135H35c-0.645,0-1.167-0.507-1.167-1.135v-1.135
	C33.833,26.616,34.355,26.108,35,26.108z M35,32.919h1.167c0.645,0,1.167,0.507,1.167,1.135v1.135c0,0.628-0.521,1.135-1.167,1.135
	H35c-0.645,0-1.167-0.507-1.167-1.135v-1.135C33.833,33.426,34.355,32.919,35,32.919z M24.5,26.108h1.167
	c0.645,0,1.167,0.507,1.167,1.135v1.135c0,0.628-0.522,1.135-1.167,1.135H24.5c-0.645,0-1.167-0.507-1.167-1.135v-1.135
	C23.333,26.616,23.855,26.108,24.5,26.108z M24.5,32.919h1.167c0.645,0,1.167,0.507,1.167,1.135v1.135
	c0,0.628-0.522,1.135-1.167,1.135H24.5c-0.645,0-1.167-0.507-1.167-1.135v-1.135C23.333,33.426,23.855,32.919,24.5,32.919z
	 M14,36.324h-1.167c-0.645,0-1.167-0.507-1.167-1.135v-1.135c0-0.627,0.522-1.135,1.167-1.135H14c0.645,0,1.167,0.509,1.167,1.135
	v1.135C15.167,35.817,14.645,36.324,14,36.324z M14,29.514h-1.167c-0.645,0-1.167-0.507-1.167-1.135v-1.135
	c0-0.627,0.522-1.135,1.167-1.135H14c0.645,0,1.167,0.509,1.167,1.135v1.135C15.167,29.006,14.645,29.514,14,29.514z M14,22.703
	h-1.167c-0.645,0-1.167-0.507-1.167-1.135v-1.135c0-0.627,0.522-1.135,1.167-1.135H14c0.645,0,1.167,0.509,1.167,1.135v1.135
	C15.167,22.195,14.645,22.703,14,22.703z M14,15.892h-1.167c-0.645,0-1.167-0.507-1.167-1.135v-1.135
	c0-0.627,0.522-1.135,1.167-1.135H14c0.645,0,1.167,0.509,1.167,1.135v1.135C15.167,15.384,14.645,15.892,14,15.892z M8.167,36.324
	H7c-0.645,0-1.167-0.507-1.167-1.135v-1.135c0-0.628,0.521-1.135,1.167-1.135h1.167c0.645,0,1.167,0.507,1.167,1.135v1.135
	C9.333,35.817,8.812,36.324,8.167,36.324z M8.167,29.514H7c-0.645,0-1.167-0.507-1.167-1.135v-1.135
	c0-0.628,0.521-1.135,1.167-1.135h1.167c0.645,0,1.167,0.507,1.167,1.135v1.135C9.333,29.006,8.812,29.514,8.167,29.514z
	 M8.167,22.703H7c-0.645,0-1.167-0.507-1.167-1.135v-1.135c0-0.627,0.521-1.135,1.167-1.135h1.167c0.645,0,1.167,0.509,1.167,1.135
	v1.135C9.333,22.195,8.812,22.703,8.167,22.703z M8.167,15.892H7c-0.645,0-1.167-0.507-1.167-1.135v-1.135
	c0-0.627,0.521-1.135,1.167-1.135h1.167c0.645,0,1.167,0.509,1.167,1.135v1.135C9.333,15.384,8.812,15.892,8.167,15.892z"/>
</svg>
