<?xml version="1.0" encoding="utf-8"?>
<!-- Generator: Adobe Illustrator 17.0.2, SVG Export Plug-In . SVG Version: 6.00 Build 0)  -->
<!DOCTYPE svg PUBLIC "-//W3C//DTD SVG 1.1//EN" "http://www.w3.org/Graphics/SVG/1.1/DTD/svg11.dtd">
<svg version="1.1" id="Layer_1" xmlns="http://www.w3.org/2000/svg" xmlns:xlink="http://www.w3.org/1999/xlink" x="0px" y="0px"
	 width="42px" height="42px" viewBox="0 0 42 42" enable-background="new 0 0 42 42" xml:space="preserve">
<path fill="#010101" d="M40.6,20.611c-0.362,0.363-0.949,0.363-1.311,0l-8.486-8.485c-0.061-0.048-0.113-0.101-0.161-0.162
	l-3.636-3.635c-0.061-0.048-0.113-0.101-0.161-0.162l-5.91-5.91L2.582,20.611c-0.362,0.363-0.949,0.363-1.311,0
	c-0.362-0.362-0.362-0.949,0-1.311L20.167,0.404c0.029-0.045,0.05-0.096,0.089-0.137C20.443,0.081,20.69-0.005,20.935,0
	c0.245-0.006,0.492,0.08,0.679,0.267c0.041,0.04,0.059,0.091,0.091,0.137l4.926,4.928V2.845l0,0c0-0.524,0.424-0.949,0.949-0.949
	h3.797c0.263,0,0.5,0.106,0.671,0.278c0.173,0.172,0.278,0.409,0.278,0.671v8.182L40.6,19.3
	C40.962,19.662,40.962,20.249,40.6,20.611z M30.428,3.795H28.53V7.23l1.899,1.899V3.795z"/>
<path fill="#010101" d="M20.649,12.341c-8.23,0-14.903,6.673-14.903,14.903s6.673,14.903,14.903,14.903s14.903-6.673,14.903-14.903
	S28.879,12.341,20.649,12.341z M20.649,40.285c-7.19,0-13.04-5.851-13.04-13.04s5.851-13.04,13.04-13.04s13.04,5.851,13.04,13.04
	S27.839,40.285,20.649,40.285z M25.281,27.818c0.355,0.6,0.533,1.301,0.533,2.103c0,1.232-0.368,2.258-1.101,3.078
	c-0.733,0.822-1.792,1.306-3.176,1.452v2.108h-1.765v-2.098c-2.309-0.237-3.737-1.579-4.288-4.024l2.729-0.711
	c0.253,1.537,1.09,2.305,2.511,2.305c0.664,0,1.155-0.164,1.468-0.493c0.313-0.329,0.469-0.726,0.469-1.192
	c0-0.482-0.156-0.848-0.469-1.095c-0.313-0.249-1.01-0.564-2.088-0.946c-0.97-0.337-1.728-0.668-2.274-0.999
	c-0.546-0.327-0.99-0.788-1.33-1.379c-0.34-0.593-0.511-1.284-0.511-2.07c0-1.032,0.306-1.961,0.913-2.787
	c0.608-0.824,1.565-1.328,2.871-1.512V17.93h1.765v1.628c1.972,0.237,3.249,1.352,3.829,3.347l-2.431,0.997
	c-0.475-1.368-1.206-2.052-2.199-2.052c-0.499,0-0.899,0.153-1.199,0.458c-0.302,0.306-0.453,0.677-0.453,1.112
	c0,0.444,0.146,0.784,0.437,1.022c0.289,0.237,0.913,0.529,1.867,0.881c1.048,0.382,1.87,0.744,2.465,1.084
	C24.449,26.748,24.924,27.219,25.281,27.818z"/>
</svg>
