<?xml version="1.0" encoding="utf-8"?>
<!-- Generator: Adobe Illustrator 17.0.2, SVG Export Plug-In . SVG Version: 6.00 Build 0)  -->
<!DOCTYPE svg PUBLIC "-//W3C//DTD SVG 1.1//EN" "http://www.w3.org/Graphics/SVG/1.1/DTD/svg11.dtd">
<svg version="1.1" id="Layer_1" xmlns="http://www.w3.org/2000/svg" xmlns:xlink="http://www.w3.org/1999/xlink" x="0px" y="0px"
	 width="80px" height="80px" viewBox="0 0 80 80" enable-background="new 0 0 80 80" xml:space="preserve">
<path fill="#FFFFFF" d="M77.402,38.771c-0.682,0.684-1.789,0.684-2.471,0L58.937,22.778c-0.115-0.09-0.213-0.19-0.303-0.305
	l-6.853-6.851c-0.115-0.09-0.213-0.19-0.303-0.305l-11.14-11.14L5.744,38.771c-0.682,0.684-1.789,0.684-2.471,0
	c-0.682-0.682-0.682-1.789,0-2.471L38.889,0.683c0.055-0.085,0.094-0.181,0.168-0.258c0.352-0.351,0.818-0.513,1.28-0.503
	c0.462-0.011,0.927,0.151,1.28,0.503c0.077,0.075,0.111,0.172,0.172,0.258l9.285,9.289V5.284l0,0c0-0.988,0.799-1.789,1.789-1.789
	h7.157c0.496,0,0.942,0.2,1.265,0.524c0.326,0.324,0.524,0.771,0.524,1.265v15.422L77.402,36.3
	C78.085,36.982,78.085,38.088,77.402,38.771z M58.23,7.075h-3.577v6.474l3.579,3.579V7.075H58.23z"/>
<path fill="#FFFFFF" d="M39.798,23.183c-15.512,0-28.09,12.578-28.09,28.09s12.578,28.09,28.09,28.09s28.09-12.578,28.09-28.09
	S55.31,23.183,39.798,23.183z M39.798,75.853c-13.552,0-24.579-11.028-24.579-24.579s11.028-24.579,24.579-24.579
	s24.579,11.028,24.579,24.579S53.35,75.853,39.798,75.853z M48.528,52.355c0.669,1.131,1.005,2.452,1.005,3.964
	c0,2.322-0.694,4.256-2.075,5.802c-1.382,1.549-3.378,2.462-5.986,2.737v3.973h-3.327v-3.954c-4.352-0.447-7.044-2.976-8.082-7.585
	l5.144-1.34c0.477,2.897,2.054,4.345,4.733,4.345c1.252,0,2.177-0.309,2.767-0.929c0.59-0.62,0.884-1.368,0.884-2.247
	c0-0.909-0.294-1.598-0.884-2.064c-0.59-0.469-1.904-1.063-3.936-1.783c-1.828-0.635-3.257-1.259-4.286-1.883
	c-1.029-0.616-1.866-1.485-2.507-2.599c-0.641-1.118-0.963-2.42-0.963-3.902c0-1.945,0.577-3.696,1.721-5.253
	c1.146-1.553,2.95-2.503,5.411-2.85v-3.069h3.327v3.069c3.717,0.447,6.124,2.548,7.217,6.309l-4.582,1.879
	c-0.895-2.578-2.273-3.868-4.145-3.868c-0.941,0-1.694,0.288-2.26,0.863c-0.569,0.577-0.854,1.276-0.854,2.096
	c0,0.837,0.275,1.478,0.824,1.926c0.545,0.447,1.721,0.997,3.519,1.661c1.975,0.72,3.525,1.402,4.646,2.043
	C46.96,50.338,47.855,51.226,48.528,52.355z"/>
</svg>
